<svg xmlns="http://www.w3.org/2000/svg" width="65.6" height="68.5" viewBox="-37.8 59 65.6 68.5" enable-background="new -37.8 59 65.6 68.5"><style type="text/css">.st0{fill:#512200;stroke:#512200;stroke-miterlimit:10;}</style><path class="st0" d="M16.2 88.7c.7 2.6 1.1 5.5 1.1 8.4v1l3.4 1.3 2.8-2.4 2.2 2.6-4.3 3.5-4.4-1.8c-.5 3.9-1.7 7.6-3.4 10.7l.6-.8 3.3 1.9 3.2-1.9 1.8 2.9-4.7 2.9-5.2-3.1c-4.2 6.4-10.5 10.4-17.6 10.4-7.1 0-13.4-4.1-17.5-10.4l-5.1 3-4.7-2.9 1.8-2.9 3.2 1.9 3.3-1.9.2.3c-1.6-3-2.7-6.5-3.1-10.2l-4.3 1.7-4.3-3.5 2.2-2.6 2.8 2.4 3.3-1.3v-1.1c0-2.9.4-5.7 1.1-8.4l-5.6-.2-2.4-4.9 3-1.5 1.6 3.3 3.8.2.1 1.1c2.3-6.8 6.8-12.3 12.4-15 .1-2.1 1.8-3.8 4-3.8h9.3c2.2 0 4 1.8 4 4v.3c5.3 2.9 9.5 8.3 11.6 14.9l.1-1.5 3.8-.2 1.6-3.3 3 1.5-2.4 4.9-5.6.5zM6.2 64.4l-.4 1.2-.7.3-1.4.4-1.2.7-1.7.9v-.9l1.9-1.4 1.4-.4 1.2-.8.7-1.4 1.4-.5-.4 1.3zM-12.9 66.3l-1.4-.4-.7-.3-.4-1.2-.7-.6-.4-1.3 1.3.5.7 1.4 1.2.8 1.4.4 1.9 1.4v.9l-1.7-.9z"/></svg>