<?xml version="1.0" encoding="utf-8"?>
<!-- Generator: Adobe Illustrator 18.1.1, SVG Export Plug-In . SVG Version: 6.00 Build 0)  -->
<svg version="1.1" id="Layer_1" xmlns="http://www.w3.org/2000/svg" xmlns:xlink="http://www.w3.org/1999/xlink" x="0px" y="0px"
	 width="65.6px" height="68.5px" viewBox="-37.8 59 65.6 68.5" style="enable-background:new -37.8 59 65.6 68.5;"
	 xml:space="preserve">
<style type="text/css">
	.st0{fill:#512200;stroke:#512200;stroke-miterlimit:10;}
</style>
<g>
	<path class="st0" d="M16.2,88.7c0.7,2.6,1.1,5.5,1.1,8.4c0,0.3,0,0.7,0,1l3.4,1.3l2.8-2.4l2.2,2.6l-4.3,3.5l-4.4-1.8
		c-0.5,3.9-1.7,7.6-3.4,10.7l0.6-0.8l3.3,1.9l3.2-1.9l1.8,2.9l-4.7,2.9l-5.2-3.1C8.4,120.3,2.1,124.3-5,124.3
		c-7.1,0-13.4-4.1-17.5-10.4l-5.1,3l-4.7-2.9l1.8-2.9l3.2,1.9l3.3-1.9l0.2,0.3c-1.6-3-2.7-6.5-3.1-10.2l-4.3,1.7l-4.3-3.5l2.2-2.6
		l2.8,2.4l3.3-1.3c0-0.4,0-0.7,0-1.1c0-2.9,0.4-5.7,1.1-8.4l-5.6-0.2l-2.4-4.9l3-1.5l1.6,3.3l3.8,0.2l0.1,1.1
		c2.3-6.8,6.8-12.3,12.4-15c0.1-2.1,1.8-3.8,4-3.8h9.3c2.2,0,4,1.8,4,4c0,0.1,0,0.2,0,0.3c5.3,2.9,9.5,8.3,11.6,14.9l0.1-1.5
		l3.8-0.2l1.6-3.3l3,1.5l-2.4,4.9L16.2,88.7z"/>
	<polygon class="st0" points="6.2,64.4 5.8,65.6 5.1,65.9 3.7,66.3 2.5,67 0.8,67.9 0.8,67 2.7,65.6 4.1,65.2 5.3,64.4 6,63 
		7.4,62.5 7,63.8 	"/>
	<polygon class="st0" points="-12.9,66.3 -14.3,65.9 -15,65.6 -15.4,64.4 -16.1,63.8 -16.5,62.5 -15.2,63 -14.5,64.4 -13.3,65.2 
		-11.9,65.6 -10,67 -10,67.9 -11.7,67 	"/>
</g>
</svg>
